<svg xmlns:xlink="http://www.w3.org/1999/xlink" width="128" xmlns="http://www.w3.org/2000/svg" height="128" id="screenshot-5bef0dac-ebc7-80f5-8002-f43e38b00921" viewBox="0 0 128 128" style="-webkit-print-color-adjust: exact;" fill="none" version="1.1"><g id="shape-5bef0dac-ebc7-80f5-8002-f43e38b00921"><defs><clipPath class="frame-clip-def frame-clip" id="frame-clip-5bef0dac-ebc7-80f5-8002-f43e38b00921-rumext-id-1"><rect rx="0" ry="0" x="0" y="0" width="128" height="128" transform="matrix(1.000000, 0.000000, 0.000000, 1.000000, 0.000000, 0.000000)" style="fill-opacity: 0;"/></clipPath></defs><g clip-path="url(#frame-clip-5bef0dac-ebc7-80f5-8002-f43e38b00921-rumext-id-1)" fill="none"><clipPath class="frame-clip-def frame-clip" id="frame-clip-5bef0dac-ebc7-80f5-8002-f43e38b00921-rumext-id-1"><rect rx="0" ry="0" x="0" y="0" width="128" height="128" transform="matrix(1.000000, 0.000000, 0.000000, 1.000000, 0.000000, 0.000000)"/></clipPath><g class="fills" id="fills-5bef0dac-ebc7-80f5-8002-f43e38b00921"><rect width="128" height="128" class="frame-background" x="0" transform="matrix(1.000000, 0.000000, 0.000000, 1.000000, 0.000000, 0.000000)" ry="0" rx="0" y="0"/></g><g class="frame-children"><g id="shape-5bef0dac-ebc7-80f5-8002-f43dfbb1dcf6" rx="0" ry="0"><g id="shape-5bef0dac-ebc7-80f5-8002-f43dfbb1dcf7"><g class="fills" id="fills-5bef0dac-ebc7-80f5-8002-f43dfbb1dcf7"><path rx="0" ry="0" d="M49.976,128.000L20.962,128.000C20.962,128.000,18.951,128.000,18.951,125.982C18.951,123.964,20.962,123.964,20.962,123.964L29.867,123.964C29.867,123.964,-5.320,99.448,2.003,74.378C10.994,43.594,41.142,45.523,49.114,48.432C61.753,53.045,65.976,61.919,65.976,61.919C65.976,61.919,69.423,57.883,71.722,61.919C73.737,65.459,68.849,68.262,68.849,68.262C68.849,68.262,77.290,87.555,70.573,97.667C68.098,101.393,60.177,105.944,55.635,90.748C52.188,79.217,61.179,67.748,61.179,67.748C61.179,67.748,60.030,63.423,47.965,58.811C34.244,53.565,15.791,62.847,11.195,76.685C2.992,101.382,34.463,123.964,34.463,123.964L49.976,123.964C49.976,123.964,51.986,123.964,51.986,125.982C51.986,128.000,49.976,128.000,49.976,128.000Z" style="fill: rgb(13, 59, 102); fill-opacity: 1;"/></g></g><g id="shape-5bef0dac-ebc7-80f5-8002-f43dfbb1dcf8"><g class="fills" id="fills-5bef0dac-ebc7-80f5-8002-f43dfbb1dcf8"><path rx="0" ry="0" d="M69.797,57.413C69.797,57.413,71.835,57.105,73.826,59.430C75.553,61.447,74.402,64.616,74.402,64.616C74.402,64.616,86.443,49.477,99.672,50.739C111.760,51.891,121.525,61.098,120.930,77.838C119.780,110.126,92.262,123.967,92.262,123.967L80.713,123.966C80.713,123.966,78.702,123.964,78.702,125.982C78.702,128.000,80.713,128.000,80.713,128.000L110.014,128.000C110.014,128.000,112.024,128.000,112.024,125.982C112.024,123.964,110.014,123.964,110.014,123.964L96.799,123.964C96.799,123.964,121.504,110.126,125.526,84.180C129.067,61.334,119.491,38.371,99.672,36.901C84.130,35.748,69.797,57.413,69.797,57.413Z" style="fill: rgb(199, 177, 152); fill-opacity: 1;"/></g></g><g id="shape-5bef0dac-ebc7-80f5-8002-f43dfbb1dcf9"><g class="fills" id="fills-5bef0dac-ebc7-80f5-8002-f43dfbb1dcf9"><path rx="0" ry="0" d="M64.339,72.360C64.339,72.360,69.333,80.681,67.786,87.928C66.924,91.964,63.764,95.423,61.179,88.216C58.317,80.239,64.339,72.360,64.339,72.360Z" style="fill: rgb(255, 255, 255); fill-opacity: 0.9;"/></g></g><g id="shape-5bef0dac-ebc7-80f5-8002-f43dfbb1dcfa"><g class="fills" id="fills-5bef0dac-ebc7-80f5-8002-f43dfbb1dcfa"><ellipse rx="12.06565455541977" ry="14.701980472271316" cx="93.26844693430348" cy="16.025050952725678" transform="matrix(0.993007, -0.118058, 0.117231, 0.993105, -1.226387, 11.121579)" style="fill: rgb(199, 177, 152); fill-opacity: 1;"/></g></g><g id="shape-5bef0dac-ebc7-80f5-8002-f43dfbb1dcfb"><g class="fills" id="fills-5bef0dac-ebc7-80f5-8002-f43dfbb1dcfb"><ellipse rx="12.065525379607834" ry="14.702136784654272" cx="37.2498099351908" cy="25.246864918359847" transform="matrix(0.994524, -0.104506, 0.103772, 0.994601, -2.415945, 4.029121)" style="fill: rgb(13, 59, 102); fill-opacity: 1;"/></g></g></g></g></g></g></svg>