<svg xmlns:xlink="http://www.w3.org/1999/xlink" width="218.006" xmlns="http://www.w3.org/2000/svg" height="222" id="screenshot-31073954-e895-801f-8003-67359f75962b" viewBox="0 0 218.006 222" style="-webkit-print-color-adjust: exact;" fill="none" version="1.1"><g id="shape-31073954-e895-801f-8003-67359f75962b" rx="0" ry="0"><g id="shape-31073954-e895-801f-8003-67359f75962c"><g class="fills" id="fills-31073954-e895-801f-8003-67359f75962c"><path rx="0" ry="0" d="M119.745,99.577C119.745,99.577,123.293,99.041,126.758,103.074C129.764,106.572,127.760,112.069,127.760,112.069C127.760,112.069,148.719,85.813,171.745,88.000C192.785,89.999,209.782,105.968,208.745,135.000C206.745,191.000,158.847,215.005,158.847,215.005L138.745,215.004C138.745,215.004,135.245,215.000,135.245,218.500C135.245,222.000,138.745,222.000,138.745,222.000L189.745,222.000C189.745,222.000,193.245,222.000,193.245,218.500C193.245,215.000,189.745,215.000,189.745,215.000L166.745,215.000C166.745,215.000,209.745,191.000,216.745,146.000C222.909,106.376,206.241,66.549,171.745,64.000C144.694,62.001,119.745,99.577,119.745,99.577Z" style="fill: rgb(199, 177, 152); fill-opacity: 1;"/></g></g><g id="shape-31073954-e895-801f-8003-67359f75962d"><g class="fills" id="fills-31073954-e895-801f-8003-67359f75962d"><path rx="0" ry="0" d="M85.245,222.000L34.745,222.000C34.745,222.000,31.245,222.000,31.245,218.500C31.245,215.000,34.745,215.000,34.745,215.000L50.245,215.000C50.245,215.000,-11.000,172.480,1.745,129.000C17.395,75.609,69.869,78.954,83.745,84.000C105.745,92.000,122.000,125.500,122.000,147.000C122.000,178.000,100.000,178.000,97.000,147.000C95.215,128.559,104.977,114.523,110.500,109.000C115.000,104.500,119.500,101.500,122.500,104.500C126.324,108.324,123.500,115.000,117.500,119.500C113.726,122.330,103.500,134.500,105.000,147.000C106.500,159.500,115.000,157.500,116.000,146.000C116.709,137.841,113.426,131.312,111.000,127.000C110.007,125.234,102.745,110.000,81.745,102.000C57.864,92.902,25.745,109.000,17.745,133.000C3.467,175.835,58.245,215.000,58.245,215.000L85.245,215.000C85.245,215.000,88.745,215.000,88.745,218.500C88.745,222.000,85.245,222.000,85.245,222.000Z" style="fill: rgb(13, 59, 102); fill-opacity: 1;"/></g></g><g id="shape-31073954-e895-801f-8003-67359f75962e"><g class="fills" id="fills-31073954-e895-801f-8003-67359f75962e"><ellipse rx="21" ry="25.499999999999773" cx="160.59909834495738" cy="27.793447746133268" transform="matrix(0.993056, -0.117644, 0.117644, 0.993056, -2.154506, 19.086522)" style="fill: rgb(199, 177, 152); fill-opacity: 1;"/></g></g><g id="shape-31073954-e895-801f-8003-67359f75962f"><g class="fills" id="fills-31073954-e895-801f-8003-67359f75962f"><ellipse rx="21" ry="25.499999999999773" cx="63.095098966094156" cy="43.78753134277912" transform="matrix(0.994563, -0.104138, 0.104138, 0.994563, -4.216894, 6.808686)" style="fill: rgb(13, 59, 102); fill-opacity: 1;"/></g></g></g></svg>